<svg width="60" height="50" viewBox="0 0 60 50" fill="none" xmlns="http://www.w3.org/2000/svg">
<path fill-rule="evenodd" clip-rule="evenodd" d="M11.3595 0L16.5638 10.9763L8.52074 5.39355L11.3595 0ZM7.953 6.62366L12.0218 14.0989L28.581 25.8323L29.6218 21.6688L7.953 6.62366ZM16.0906 22.8989L12.6842 15.8968L28.0132 26.6839H21.3896L16.0906 22.8989ZM32.3659 26.6839H39.5573L44.2885 22.8989L47.7896 15.8968L32.3659 26.6839ZM31.9874 25.8323L30.5681 21.6688L51.953 6.62366L48.5465 14.0989L31.9874 25.8323ZM43.8154 10.9763L48.925 0L51.5745 5.39355L43.8154 10.9763ZM26.9724 30.6581L24.3229 28.7656L20.1595 31.8882L25.4584 35.6731L26.9724 30.6581ZM33.4068 30.6581L35.2046 35.6731L40.2197 31.8882L36.2455 28.7656L33.4068 30.6581ZM26.1207 36.2409L30.0003 33.2129L33.9745 36.2409L30.0003 39.1742L26.1207 36.2409ZM32.4607 29.6172C32.4607 30.8714 31.444 31.8882 30.1898 31.8882C28.9355 31.8882 27.9188 30.8714 27.9188 29.6172C27.9188 28.363 28.9355 27.3462 30.1898 27.3462C31.444 27.3462 32.4607 28.363 32.4607 29.6172ZM1.368 46.744V43.384H0V46.736C0 47.2373 0.101333 47.664 0.304 48.016C0.506667 48.3627 0.781333 48.624 1.128 48.8C1.48 48.9707 1.87733 49.056 2.32 49.056C2.76267 49.056 3.16267 48.968 3.52 48.792C3.88267 48.616 4.17067 48.3547 4.384 48.008C4.59733 47.6613 4.704 47.2373 4.704 46.736V43.384H3.336V46.744C3.336 47.08 3.25067 47.3387 3.08 47.52C2.90933 47.7013 2.664 47.792 2.344 47.792C2.024 47.792 1.78133 47.7013 1.616 47.52C1.45067 47.3387 1.368 47.08 1.368 46.744ZM5.91262 48.856C6.06729 48.9947 6.26462 49.064 6.50462 49.064C6.73929 49.064 6.93129 48.9947 7.08062 48.856C7.23529 48.712 7.31262 48.536 7.31262 48.328C7.31262 48.1147 7.23529 47.936 7.08062 47.792C6.93129 47.648 6.73929 47.576 6.50462 47.576C6.26462 47.576 6.06729 47.648 5.91262 47.792C5.76329 47.936 5.68862 48.1147 5.68862 48.328C5.68862 48.536 5.76329 48.712 5.91262 48.856ZM9.25044 48.856C9.57577 48.9893 9.94377 49.056 10.3544 49.056C10.7758 49.056 11.1411 48.9787 11.4504 48.824C11.7598 48.6693 11.9944 48.4613 12.1544 48.2C12.3198 47.9387 12.4024 47.648 12.4024 47.328C12.4024 46.992 12.3198 46.7173 12.1544 46.504C11.9891 46.2907 11.7918 46.128 11.5624 46.016C11.3384 45.904 11.0451 45.7867 10.6824 45.664C10.3198 45.5467 10.0531 45.4373 9.88244 45.336C9.71177 45.2347 9.62644 45.0933 9.62644 44.912C9.62644 44.7467 9.6771 44.6213 9.77844 44.536C9.87977 44.4453 10.0131 44.4 10.1784 44.4C10.3704 44.4 10.5278 44.4533 10.6504 44.56C10.7731 44.6613 10.8398 44.8027 10.8504 44.984H12.3304C12.3038 44.456 12.1011 44.0453 11.7224 43.752C11.3438 43.4533 10.8451 43.304 10.2264 43.304C9.61844 43.304 9.1251 43.4533 8.74644 43.752C8.36777 44.0453 8.17844 44.4533 8.17844 44.976C8.17844 45.328 8.2611 45.6133 8.42644 45.832C8.59177 46.0507 8.7891 46.216 9.01844 46.328C9.24777 46.44 9.54377 46.552 9.90644 46.664C10.1571 46.7387 10.3491 46.8053 10.4824 46.864C10.6211 46.9227 10.7358 46.9973 10.8264 47.088C10.9224 47.1787 10.9704 47.2933 10.9704 47.432C10.9704 47.5973 10.9118 47.728 10.7944 47.824C10.6771 47.9147 10.5171 47.96 10.3144 47.96C10.1171 47.96 9.9571 47.9067 9.83444 47.8C9.71177 47.688 9.63977 47.528 9.61844 47.32H8.16244C8.1731 47.688 8.27444 48.0027 8.46644 48.264C8.66377 48.5253 8.9251 48.7227 9.25044 48.856ZM13.4923 48.856C13.647 48.9947 13.8443 49.064 14.0843 49.064C14.319 49.064 14.511 48.9947 14.6603 48.856C14.815 48.712 14.8923 48.536 14.8923 48.328C14.8923 48.1147 14.815 47.936 14.6603 47.792C14.511 47.648 14.319 47.576 14.0843 47.576C13.8443 47.576 13.647 47.648 13.4923 47.792C13.343 47.936 13.2683 48.1147 13.2683 48.328C13.2683 48.536 13.343 48.712 13.4923 48.856ZM18.8614 49L19.1974 48.008H21.2934L21.6294 49H23.0774L21.0454 43.384H19.4614L17.4294 49H18.8614ZM20.2454 44.896L20.9414 46.952H19.5574L20.2454 44.896ZM25.2639 49V43.384H23.8959V49H25.2639ZM28.1512 46.88L29.3193 49H30.8633L29.5672 46.776C29.9779 46.6533 30.2873 46.4453 30.4953 46.152C30.7086 45.8587 30.8153 45.5253 30.8153 45.152C30.8153 44.8213 30.7379 44.5227 30.5833 44.256C30.4286 43.984 30.1939 43.7707 29.8792 43.616C29.5699 43.4613 29.1939 43.384 28.7512 43.384H26.4552V49H27.8232V46.88H28.1512ZM28.6712 45.912H27.8232V44.52H28.6712C28.9219 44.52 29.1086 44.5813 29.2312 44.704C29.3592 44.8267 29.4233 44.9947 29.4233 45.208C29.4233 45.432 29.3592 45.6053 29.2312 45.728C29.1086 45.8507 28.9219 45.912 28.6712 45.912ZM37.4253 44.48V43.384H33.7693V49H35.1373V46.728H36.8493V45.664H35.1373V44.48H37.4253ZM39.5443 48.688C39.987 48.9333 40.4723 49.056 41.0003 49.056C41.5283 49.056 42.011 48.9333 42.4483 48.688C42.8856 48.4427 43.2323 48.1013 43.4883 47.664C43.7443 47.2213 43.8723 46.7253 43.8723 46.176C43.8723 45.6267 43.7443 45.1333 43.4883 44.696C43.2376 44.2587 42.891 43.9173 42.4483 43.672C42.011 43.4267 41.5283 43.304 41.0003 43.304C40.4723 43.304 39.987 43.4267 39.5443 43.672C39.107 43.9173 38.7576 44.2587 38.4963 44.696C38.2403 45.1333 38.1123 45.6267 38.1123 46.176C38.1123 46.7253 38.2403 47.2213 38.4963 47.664C38.7576 48.1013 39.107 48.4427 39.5443 48.688ZM42.0723 47.36C41.8056 47.6587 41.4483 47.808 41.0003 47.808C40.547 47.808 40.1843 47.6613 39.9123 47.368C39.6456 47.0693 39.5123 46.672 39.5123 46.176C39.5123 45.6747 39.6456 45.2773 39.9123 44.984C40.1843 44.6907 40.547 44.544 41.0003 44.544C41.4483 44.544 41.8056 44.6933 42.0723 44.992C42.3443 45.2853 42.4803 45.68 42.4803 46.176C42.4803 46.6667 42.3443 47.0613 42.0723 47.36ZM46.5294 46.88L47.6974 49H49.2414L47.9454 46.776C48.356 46.6533 48.6654 46.4453 48.8734 46.152C49.0867 45.8587 49.1934 45.5253 49.1934 45.152C49.1934 44.8213 49.116 44.5227 48.9614 44.256C48.8067 43.984 48.572 43.7707 48.2574 43.616C47.948 43.4613 47.572 43.384 47.1294 43.384H44.8334V49H46.2014V46.88H46.5294ZM47.0494 45.912H46.2014V44.52H47.0494C47.3 44.52 47.4867 44.5813 47.6094 44.704C47.7374 44.8267 47.8014 44.9947 47.8014 45.208C47.8014 45.432 47.7374 45.6053 47.6094 45.728C47.4867 45.8507 47.3 45.912 47.0494 45.912ZM50.3801 44.704C50.1401 45.136 50.0201 45.6293 50.0201 46.184C50.0201 46.7387 50.1401 47.232 50.3801 47.664C50.6201 48.096 50.9535 48.4347 51.3801 48.68C51.8121 48.92 52.3001 49.04 52.8441 49.04C53.5108 49.04 54.0815 48.8667 54.5561 48.52C55.0308 48.168 55.3481 47.688 55.5081 47.08H54.0041C53.8921 47.3147 53.7321 47.4933 53.5241 47.616C53.3215 47.7387 53.0895 47.8 52.8281 47.8C52.4068 47.8 52.0655 47.6533 51.8041 47.36C51.5428 47.0667 51.4121 46.6747 51.4121 46.184C51.4121 45.6933 51.5428 45.3013 51.8041 45.008C52.0655 44.7147 52.4068 44.568 52.8281 44.568C53.0895 44.568 53.3215 44.6293 53.5241 44.752C53.7321 44.8747 53.8921 45.0533 54.0041 45.288H55.5081C55.3481 44.68 55.0308 44.2 54.5561 43.848C54.0815 43.496 53.5108 43.32 52.8441 43.32C52.3001 43.32 51.8121 43.4427 51.3801 43.688C50.9535 43.928 50.6201 44.2667 50.3801 44.704ZM57.9139 45.616V44.48H59.9859V43.384H56.5459V49H59.9859V47.904H57.9139V46.672H59.7459V45.616H57.9139Z" fill="white"/>
</svg>
